<?xml version="1.0" standalone="no"?>
<!DOCTYPE svg PUBLIC "-//W3C//DTD SVG 20010904//EN"
 "http://www.w3.org/TR/2001/REC-SVG-20010904/DTD/svg10.dtd">
<svg version="1.0" xmlns="http://www.w3.org/2000/svg"
 width="40.000000pt" height="40.000000pt" viewBox="0 0 119.000000 147.000000"
 preserveAspectRatio="xMidYMid meet">
<metadata>
Created by potrace 1.10, written by Peter Selinger 2001-2011
</metadata>
<g transform="translate(0.000000,147.000000) scale(0.050000,-0.050000)"
fill="#000000" stroke="none">
<path style="fill:white;" d="M1068 2860 c-107 -24 -154 -104 -78 -133 41 -16 74 -153 58 -242 -32
-177 -146 -308 -370 -427 -284 -151 -618 -635 -618 -896 0 -20 211 -270 470
-556 l469 -521 101 -13 c55 -7 145 -7 199 0 l99 13 463 539 462 539 -43 143
c-114 380 -299 627 -580 773 -207 108 -267 160 -331 292 -63 128 -64 318 -2
352 135 76 -97 182 -299 137z m172 -565 c58 -114 207 -264 334 -337 222 -128
338 -317 360 -590 l11 -141 -96 -57 c-108 -63 -336 -283 -529 -510 -155 -183
-122 -187 -310 38 -209 251 -414 466 -501 525 -172 115 -8 509 299 715 166
113 276 227 337 353 52 107 42 107 95 4z"/>
</g>
</svg>
